<?xml version="1.0" standalone="no"?>
<!DOCTYPE svg PUBLIC "-//W3C//DTD SVG 20010904//EN"
 "http://www.w3.org/TR/2001/REC-SVG-20010904/DTD/svg10.dtd">
<svg version="1.0" xmlns="http://www.w3.org/2000/svg"
 width="260.000000pt" height="260.000000pt" viewBox="0 0 260.000000 260.000000"
 preserveAspectRatio="xMidYMid meet">
<metadata>
Created by potrace 1.14, written by Peter Selinger 2001-2017
</metadata>
<g transform="translate(0.000000,260.000000) scale(0.100000,-0.100000)"
fill="#000000" stroke="none">
<path d="M838 2585 c-31 -17 -51 -75 -39 -108 5 -12 58 -66 118 -119 60 -54
154 -145 210 -202 90 -95 103 -105 129 -100 50 8 74 26 85 64 9 29 8 43 -4 66
-28 53 -320 339 -407 397 -30 21 -56 21 -92 2z"/>
<path d="M418 2420 c-37 -11 -63 -30 -130 -97 -91 -89 -97 -156 -20 -195 38
-18 82 -10 105 21 26 37 33 30 30 -31 -1 -34 -6 -65 -10 -69 -4 -4 -33 -17
-63 -29 -135 -53 -216 -123 -271 -235 -68 -139 -40 -269 73 -326 119 -60 245
-3 326 150 34 63 92 227 92 260 0 33 35 43 154 44 129 1 207 -15 242 -50 58
-57 18 -197 -87 -301 -80 -80 -181 -121 -302 -122 -40 0 -54 -5 -79 -30 -25
-25 -29 -36 -25 -65 9 -65 45 -87 140 -86 273 3 543 246 561 504 10 151 -63
256 -214 308 -55 19 -87 22 -210 22 l-145 1 -1 102 c-1 83 -5 109 -23 145 -35
69 -83 95 -143 79z m-73 -612 c-12 -46 -40 -104 -68 -146 -21 -32 -34 -42 -50
-40 -18 2 -21 9 -19 33 5 45 48 112 94 145 49 36 51 36 43 8z"/>
<path d="M1880 2133 c-35 -7 -86 -20 -114 -30 -28 -9 -57 -18 -64 -19 -29 -5
-239 -115 -285 -149 -26 -20 -52 -48 -58 -62 -22 -59 22 -123 86 -123 21 0 47
12 76 34 91 69 264 144 399 172 136 29 233 -21 223 -114 -8 -86 -100 -192
-220 -255 -62 -32 -74 -43 -82 -73 -19 -70 27 -121 100 -111 98 13 274 156
337 274 55 104 62 228 18 309 -70 128 -230 185 -416 147z"/>
<path d="M2052 1213 c-23 -11 -35 -27 -44 -54 -11 -38 -9 -44 63 -197 92 -197
94 -200 136 -211 61 -17 113 25 109 87 -6 65 -144 353 -178 369 -42 20 -55 21
-86 6z"/>
<path d="M2340 1203 c-25 -9 -50 -46 -50 -76 0 -15 8 -47 19 -70 10 -23 31
-76 45 -117 61 -166 68 -180 98 -196 36 -19 78 -11 106 19 24 26 35 72 22 95
-4 10 -23 58 -41 107 -55 153 -88 221 -115 234 -26 12 -59 13 -84 4z"/>
<path d="M680 1061 c-33 -9 -72 -68 -64 -95 12 -40 87 -181 124 -233 79 -111
126 -153 173 -153 39 0 87 49 87 88 0 28 -10 44 -98 154 -20 26 -55 82 -77
125 -44 86 -50 94 -82 111 -24 13 -26 13 -63 3z"/>
<path d="M970 1030 c-42 -39 -39 -70 18 -181 26 -52 60 -121 75 -154 22 -50
33 -63 62 -74 29 -10 40 -10 70 4 73 35 65 99 -37 295 -59 114 -73 130 -121
134 -30 3 -43 -2 -67 -24z"/>
<path d="M1512 964 c-30 -21 -39 -47 -47 -131 -4 -37 -9 -81 -11 -98 -3 -16
-5 -91 -6 -165 0 -252 61 -393 200 -461 41 -20 61 -23 157 -23 89 0 121 5 166
23 101 39 247 147 250 185 1 9 2 22 3 29 3 20 -23 66 -43 77 -38 20 -78 11
-123 -26 -60 -51 -105 -78 -158 -96 -129 -42 -220 -7 -250 97 -6 22 -13 48
-16 57 -4 13 15 28 87 63 186 94 362 215 379 261 22 57 -47 132 -104 115 -12
-3 -73 -40 -136 -82 -118 -78 -206 -129 -221 -129 -9 0 -4 83 10 175 13 92
-17 145 -84 145 -17 0 -41 -7 -53 -16z"/>
<path d="M297 898 c-89 -45 -186 -154 -251 -281 -46 -91 -39 -134 27 -162 60
-25 91 -2 157 115 19 34 57 84 84 112 58 59 49 64 147 -87 35 -55 67 -104 72
-110 4 -5 44 -59 90 -120 134 -179 316 -345 395 -361 63 -13 122 55 100 114
-10 29 -21 39 -82 81 -121 83 -242 225 -426 502 -65 96 -131 184 -146 194 -40
27 -119 28 -167 3z"/>
</g>
</svg>
